<?xml version="1.0" encoding="utf-8"?>
<svg xmlns="http://www.w3.org/2000/svg" xmlns:xlink="http://www.w3.org/1999/xlink" style="margin: auto; background: rgba(0, 0, 0, 0) none repeat scroll 0% 0%; display: block; shape-rendering: auto;" width="30px" height="30px" viewBox="0 0 100 100" preserveAspectRatio="xMidYMid">
<g transform="translate(50 50)">
<g>
<animateTransform attributeName="transform" type="rotate" values="0;36" keyTimes="0;1" dur="0.2s" repeatCount="indefinite"></animateTransform><path d="M29.491524206117255 -5.5 L35.491524206117255 -5.5 L35.491524206117255 5.5 L29.491524206117255 5.5 A30 30 0 0 1 27.091963160377592 12.885089526919998 L27.091963160377592 12.885089526919998 L31.946065126627275 16.41180104067484 L25.48042735141007 25.31098797879926 L20.62632538516039 21.78427646504442 A30 30 0 0 1 14.344193009333706 26.34851280264186 L14.344193009333706 26.34851280264186 L16.19829497558339 32.05485190041278 L5.736673296336704 35.4540388385372 L3.88257133008702 29.747699740766283 A30 30 0 0 1 -3.882571330087016 29.747699740766283 L-3.882571330087016 29.747699740766283 L-5.736673296336701 35.4540388385372 L-16.198294975583394 32.05485190041278 L-14.34419300933371 26.34851280264186 A30 30 0 0 1 -20.62632538516038 21.784276465044428 L-20.62632538516038 21.784276465044428 L-25.480427351410064 25.310987978799268 L-31.946065126627275 16.411801040674835 L-27.091963160377592 12.885089526919996 A30 30 0 0 1 -29.491524206117255 5.500000000000009 L-29.491524206117255 5.500000000000009 L-35.491524206117255 5.50000000000001 L-35.491524206117255 -5.500000000000001 L-29.491524206117255 -5.500000000000002 A30 30 0 0 1 -27.091963160377595 -12.88508952691999 L-27.091963160377595 -12.88508952691999 L-31.946065126627282 -16.411801040674828 L-25.48042735141007 -25.31098797879926 L-20.626325385160385 -21.78427646504442 A30 30 0 0 1 -14.344193009333717 -26.348512802641856 L-14.344193009333717 -26.348512802641856 L-16.1982949755834 -32.05485190041278 L-5.7366732963367015 -35.4540388385372 L-3.8825713300870164 -29.747699740766283 A30 30 0 0 1 3.8825713300870057 -29.747699740766286 L3.8825713300870057 -29.747699740766286 L5.736673296336689 -35.45403883853721 L16.19829497558339 -32.05485190041278 L14.344193009333706 -26.34851280264186 A30 30 0 0 1 20.626325385160378 -21.784276465044428 L20.626325385160378 -21.784276465044428 L25.48042735141006 -25.310987978799268 L31.946065126627275 -16.41180104067484 L27.091963160377592 -12.885089526919998 A30 30 0 0 1 29.491524206117255 -5.500000000000013 M0 -21A21 21 0 1 0 0 21 A21 21 0 1 0 0 -21" fill="#150864"></path></g></g>
<!-- [ldio] generated by https://loading.io/ --></svg>